<?xml version="1.0" encoding="utf-8"?>
<!-- Generator: Adobe Illustrator 16.0.0, SVG Export Plug-In . SVG Version: 6.00 Build 0)  -->
<!DOCTYPE svg PUBLIC "-//W3C//DTD SVG 1.1//EN" "http://www.w3.org/Graphics/SVG/1.1/DTD/svg11.dtd">
<svg version="1.1" xmlns="http://www.w3.org/2000/svg" xmlns:xlink="http://www.w3.org/1999/xlink" x="0px" y="0px" width="612px"
	 height="792px" viewBox="0 0 612 792" enable-background="new 0 0 612 792" xml:space="preserve">
<g id="Calque_1">
	<title>Asset 2</title>
	<path d="M593.083,221.481c0.378-0.193,0.774-0.349,1.183-0.451c4.574-5.574,7.378-12.414,8.002-19.638
		c1.28-18.322-1.753-36.69-8.857-53.628c-1.102-3.41-2.604-6.677-4.477-9.733c-2.286-3.182-4.968-6.06-7.981-8.564
		c-6.442-6.391-14.174-11.334-22.678-14.502c0.296-22.381-5.061-44.476-15.572-64.237c-3.577-7.138-8.777-13.338-15.183-18.103
		c-10.594-5.887-22.649-8.623-34.747-7.884c-15.41-1.955-31.058,0.58-45.062,7.3c-8.663,5.554-15.448,13.593-19.466,23.067
		c-0.028-0.083-0.062-0.165-0.093-0.248c-0.355,0.755-0.896,1.413-1.619,1.885c-0.501,2.251-0.938,4.503-1.039,6.838
		c0.146,0.985,0.314,1.962,0.495,2.921c0.101,0.535,0.131,1.041,0.103,1.516c0.479,0.952,0.655,2.063,0.534,3.134
		c-0.267-2.253-1.86-4.32-4.791-4.32c-2.914,0-4.507,2.043-4.787,4.282c-0.01-0.095-0.029-0.189-0.035-0.285
		c-1-1.05-2.048-2.054-3.172-2.975c-4.129-2.888-8.491-5.427-13.042-7.592c-15.476-8.37-27.738-22.191-43.604-30.463
		c-3.702-1.851-7.542-3.412-11.484-4.672c0.057-0.211,0.102-0.424,0.15-0.637c-8.026-2.05-16.404-2.449-24.403-4.533
		c-0.093,0.033-0.181,0.077-0.273,0.108l-8.565-1.266c-11.209-2.656-22.964-1.807-33.675,2.434c-2.226-1.605-4.689-2.853-7.3-3.699
		c-2.375-0.742-4.822-1.231-7.299-1.46c-10.246-0.861-20.494,1.632-29.199,7.105c-8.026-1.619-16.157-2.66-24.332-3.114
		c-3.927-0.699-7.947-0.699-11.874,0c-2.911,0.986-5.689,2.326-8.273,3.99l-23.164,13.723c-16.817,1.614-33.053,7.003-47.496,15.768
		c-12.432,7.488-24.16,16.088-35.038,25.694c-8.179,4.52-15.736,10.082-22.483,16.546c-9.951,9.776-18.677,20.725-25.987,32.605
		c-6.41,6.954-11.637,14.91-15.475,23.553c-2.332,5.18-3.779,10.7-4.323,16.335c1.023,6.436,2.235,12.85,3.275,19.29
		c2.202,4.447,5.577,8.232,9.807,10.897c1.447,0.871,2.979,1.588,4.575,2.141c-0.195,2.92-0.422,6.035-0.681,9.344
		c-0.015,0-0.029-0.002-0.044-0.003c0.076,0.696,0.021,1.406-0.157,2.079c0.025,0.265,0.027,0.531,0.015,0.797
		c0.038,0.639-0.032,1.284-0.207,1.896h0.003c-0.908,11.615-2.206,23.197-3.893,34.746c-0.667,3.734-0.667,7.556,0,11.29
		c1.196,4.367,3.033,8.533,5.451,12.361c2.128,3.95,3.701,8.175,4.671,12.556c-3.998-3.656-7.296-8.009-9.733-12.848
		c-1.15,8.459,1.245,17.018,6.619,23.651c1.24,1.518,2.681,2.861,4.282,3.99c0,0,0,0.682,0,0.974
		c-7.681,21.571-19.078,41.631-33.675,59.273c-3.567,3.525-6.006,8.03-7.008,12.944c0.037,6.59,3.81,12.588,9.733,15.475
		c3.461,1.957,7.114,3.555,10.901,4.769c2.238,0.779,4.379,1.558,6.521,2.434l0.584-0.487c2.379,1.665,4.154,4.054,5.061,6.813
		c1.478,5.573,0.635,11.507-2.336,16.448c-1.599,2.128-2.423,4.737-2.336,7.397c0.608,1.985,1.836,3.726,3.504,4.964l15.67,14.696
		c-6.887,1.223-12.13,6.862-12.848,13.82c-0.981,4.03-0.086,8.287,2.433,11.582c2.192,1.894,4.573,3.558,7.105,4.964
		c8.371,6.132,8.955,18.2,8.857,28.518c-0.097,10.316,1.071,22.58,9.733,28.03c3.588,2.073,7.788,2.83,11.874,2.141
		c25.242,1.797,50.605,0.785,75.624-3.017c7.369-0.676,14.781,0.705,21.412,3.99c5.613,2.733,9.892,7.608,11.874,13.528
		c0,0,5.548,16.546,11.096,36.498c3.504,12.458,7.007,26.279,9.246,38.25c89.542,37.569,133.242-54.698,214.122-51.292
		c-18.433-42.399-27.081-88.405-25.306-134.604c26.092-5.096,47.779-23.151,57.521-47.885c3.433-9.701,5.305-19.885,5.548-30.172
		c2.53,1.071,4.964,2.433,7.494,3.309c6.801,2.484,14.3,2.24,20.926-0.681c1.642-0.519,3.007-1.641,3.852-3.114
		c0.401,0.091,0.832,0.141,1.302,0.132c14.007-0.261,27.217-6.884,35.219-17.961c12.575,2.505,26.018-4.398,37.296-11.078
		c8.919-4.606,17.036-10.62,24.04-17.811c7.17-8.73,11.785-19.273,13.334-30.464c1.759-10.536,1.759-21.291,0-31.827
		c0.149,0.209,0.291,0.425,0.437,0.637c-0.021-5.263-2.064-9.919-3.895-14.713c-1.48-2.387-3.285-4.666-5.297-6.916
		C587.317,226.702,589.829,222.254,593.083,221.481z"/>
</g>
<g id="Calque_2">
</g>
</svg>
