<svg width="612" height="792" xmlns="http://www.w3.org/2000/svg">

 <g>
  <title>background</title>
  <rect fill="none" id="canvas_background" height="794" width="614" y="-1" x="-1"/>
 </g>
 <g>
  <title>Layer 1</title>
  <path stroke="null" id="svg_1" d="m275.317164,109.450736c0.1843,-0.105456 0.3686,-0.158184 0.552901,-0.26364c2.119452,-2.952768 3.409553,-6.538271 3.686003,-10.334687c0.598976,-9.649223 -0.829351,-19.351173 -4.100679,-28.262204c-0.506825,-1.792752 -1.197951,-3.532776 -2.073377,-5.114615c-1.059726,-1.687296 -2.303752,-3.216408 -3.686003,-4.534607c-2.948803,-3.374592 -6.542656,-5.958263 -10.459035,-7.645559c0.138225,-11.81107 -2.349827,-23.463957 -7.187707,-33.851372c-1.658702,-3.743688 -4.054604,-7.012823 -7.003407,-9.543767c-4.883955,-3.110952 -10.41296,-4.534607 -15.98804,-4.165511c-7.095557,-1.05456 -14.329338,0.316368 -20.779844,3.849143c-4.008529,2.952768 -7.095557,7.171007 -8.984633,12.180166c0,-0.052728 -0.046075,-0.105456 -0.046075,-0.105456c-0.1843,0.421824 -0.414675,0.738192 -0.737201,1.001832c-0.230375,1.212744 -0.414675,2.37276 -0.46075,3.585504c0.046075,0.52728 0.138225,1.05456 0.230375,1.529112c0.046075,0.26364 0.046075,0.52728 0.046075,0.79092c0.230375,0.52728 0.322525,1.107288 0.230375,1.634568c-0.138225,-1.212744 -0.875426,-2.267304 -2.211602,-2.267304c-1.336176,0 -2.073377,1.05456 -2.211602,2.267304c0,-0.052728 0,-0.105456 0,-0.158184c-0.46075,-0.52728 -0.921501,-1.107288 -1.474401,-1.58184c-1.889077,-1.529112 -3.916379,-2.847312 -5.989756,-4.007327c-7.141632,-4.429151 -12.762787,-11.705614 -20.088719,-16.082038c-1.704777,-1.001832 -3.455628,-1.792752 -5.29863,-2.478216c0.046075,-0.105456 0.046075,-0.210912 0.09215,-0.316368c-3.686003,-1.05456 -7.556307,-1.265472 -11.24231,-2.37276c-0.046075,0 -0.09215,0.052728 -0.138225,0.052728l-3.962454,-0.685464c-5.160405,-1.423656 -10.59726,-0.949104 -15.527289,1.265472c-1.013651,-0.843648 -2.165527,-1.529112 -3.363478,-1.950936c-1.105801,-0.369096 -2.211602,-0.632736 -3.363478,-0.79092c-4.699654,-0.474552 -9.445384,0.843648 -13.453913,3.743688c-3.686003,-0.843648 -7.464157,-1.423656 -11.196235,-1.634568c-1.796927,-0.369096 -3.639928,-0.369096 -5.48293,0c-1.336176,0.52728 -2.626277,1.212744 -3.824229,2.10912l-10.68941,7.223735c-7.740607,0.843648 -15.250839,3.69096 -21.885645,8.331023c-5.713305,3.954599 -11.15016,8.489207 -16.126265,13.551094c-3.778154,2.37276 -7.233782,5.325527 -10.366885,8.700119c-4.607504,5.167343 -8.616033,10.914695 -11.979511,17.189326c-2.948803,3.69096 -5.344705,7.856471 -7.141632,12.443806c-1.059726,2.741856 -1.750852,5.641895 -1.981227,8.594663c0.46075,3.374592 1.013651,6.801911 1.520476,10.176503c1.013651,2.320032 2.580202,4.323695 4.515354,5.747351c0.645051,0.474552 1.382251,0.843648 2.119452,1.107288c-0.09215,1.529112 -0.1843,3.16368 -0.322525,4.903703c0,0 0,0 0,0c0.046075,0.369096 0,0.738192 -0.09215,1.107288c0,0.158184 0,0.26364 0,0.421824c0,0.316368 0,0.685464 -0.09215,1.001832l0,0c-0.414675,6.116447 -1.013651,12.232894 -1.796927,18.296614c-0.322525,1.950936 -0.322525,4.007327 0,5.958263c0.552901,2.320032 1.382251,4.481879 2.534127,6.538271c0.967576,2.10912 1.704777,4.323695 2.165527,6.643727c-1.843002,-1.950936 -3.363478,-4.218239 -4.469279,-6.749183c-0.506825,4.481879 0.552901,8.963759 3.040953,12.496534c0.552901,0.79092 1.244026,1.529112 1.981227,2.10912c0,0 0,0.369096 0,0.52728c-3.547778,11.389247 -8.800333,21.934845 -15.527289,31.2677c-1.658702,1.84548 -2.764503,4.218239 -3.225253,6.801911c0,3.480048 1.750852,6.643727 4.469279,8.172839c1.612627,1.05456 3.271328,1.898208 5.02218,2.530944c1.013651,0.421824 2.027302,0.843648 2.994878,1.265472l0.27645,-0.26364c1.105801,0.896376 1.935152,2.161848 2.349827,3.585504c0.691126,2.952768 0.27645,6.063719 -1.059726,8.647391c-0.737201,1.107288 -1.105801,2.478216 -1.059726,3.901871c0.27645,1.05456 0.829351,1.950936 1.612627,2.6364l7.233782,7.751015c-3.179178,0.632736 -5.57508,3.638232 -5.897605,7.276463c-0.46075,2.10912 -0.046075,4.376423 1.105801,6.116447c1.013651,1.001832 2.119452,1.898208 3.271328,2.6364c3.870304,3.216408 4.146754,9.596495 4.100679,15.027478c-0.046075,5.430983 0.506825,11.916526 4.469279,14.763838c1.658702,1.107288 3.593853,1.476384 5.48293,1.107288c11.610911,0.949104 23.313972,0.421824 34.832732,-1.58184c3.409553,-0.369096 6.819106,0.369096 9.860059,2.10912c2.580202,1.423656 4.561429,4.007327 5.48293,7.118279c0,0 2.534127,8.700119 5.11433,19.245717c1.612627,6.590999 3.225253,13.867462 4.238904,20.194821c41.237163,19.825725 61.371957,-28.842212 98.646667,-27.04946c-8.477808,-22.356669 -12.486337,-46.611546 -11.656986,-70.971879c12.025586,-2.689128 22.02387,-12.232894 26.49315,-25.256709c1.566551,-5.114615 2.441977,-10.492871 2.534127,-15.923854c1.151876,0.580008 2.303752,1.265472 3.455628,1.740024c3.133103,1.3182 6.588731,1.160016 9.629684,-0.369096c0.737201,-0.26364 1.382251,-0.843648 1.796927,-1.634568c0.1843,0.052728 0.3686,0.052728 0.598976,0.052728c6.450506,-0.158184 12.532412,-3.638232 16.218415,-9.491039c5.805455,1.3182 11.979511,-2.320032 17.185991,-5.852807c4.100679,-2.425488 7.832757,-5.589167 11.05801,-9.385583c3.317403,-4.587335 5.436855,-10.176503 6.127981,-16.082038c0.829351,-5.536439 0.829351,-11.231063 0,-16.767502c0.046075,0.105456 0.138225,0.210912 0.1843,0.316368c0,-2.794584 -0.967576,-5.220071 -1.796927,-7.751015c-0.691126,-1.265472 -1.520476,-2.478216 -2.441977,-3.638232c-1.290101,-1.687296 -0.138225,-4.007327 1.382251,-4.429151z"/>
  <text stroke="null" transform="matrix(42.72401554076776,0,0,158.75416161443724,-18112.45338644747,-59183.695760846866) " xml:space="preserve" text-anchor="start" font-family="Helvetica, Arial, sans-serif" font-size="1" id="svg_2" y="374.834002" x="428.748302" fill-opacity="null" stroke-opacity="null" stroke-width="0" fill="#000000">LEBEAUCHEVEU</text>
 </g>
</svg>