<svg width="612" height="792" xmlns="http://www.w3.org/2000/svg">

 <g>
  <title>background</title>
  <rect fill="none" id="canvas_background" height="402" width="582" y="-1" x="-1"/>
 </g>
 <g>
  <title>Layer 1</title>
  <path id="svg_1" d="m592.1,220.5c0.4,-0.2 0.8,-0.3 1.2,-0.5c4.6,-5.6 7.4,-12.4 8,-19.6c1.3,-18.3 -1.8,-36.7 -8.9,-53.6c-1.1,-3.4 -2.6,-6.7 -4.5,-9.7c-2.3,-3.2 -5,-6.1 -8,-8.6c-6.4,-6.4 -14.2,-11.3 -22.7,-14.5c0.3,-22.4 -5.1,-44.5 -15.6,-64.2c-3.6,-7.1 -8.8,-13.3 -15.2,-18.1c-10.6,-5.9 -22.6,-8.6 -34.7,-7.9c-15.4,-2 -31.1,0.6 -45.1,7.3c-8.7,5.6 -15.4,13.6 -19.5,23.1c0,-0.1 -0.1,-0.2 -0.1,-0.2c-0.4,0.8 -0.9,1.4 -1.6,1.9c-0.5,2.3 -0.9,4.5 -1,6.8c0.1,1 0.3,2 0.5,2.9c0.1,0.5 0.1,1 0.1,1.5c0.5,1 0.7,2.1 0.5,3.1c-0.3,-2.3 -1.9,-4.3 -4.8,-4.3c-2.9,0 -4.5,2 -4.8,4.3c0,-0.1 0,-0.2 0,-0.3c-1,-1 -2,-2.1 -3.2,-3c-4.1,-2.9 -8.5,-5.4 -13,-7.6c-15.5,-8.4 -27.7,-22.2 -43.6,-30.5c-3.7,-1.9 -7.5,-3.4 -11.5,-4.7c0.1,-0.2 0.1,-0.4 0.2,-0.6c-8,-2 -16.4,-2.4 -24.4,-4.5c-0.1,0 -0.2,0.1 -0.3,0.1l-8.6,-1.3c-11.2,-2.7 -23,-1.8 -33.7,2.4c-2.2,-1.6 -4.7,-2.9 -7.3,-3.7c-2.4,-0.7 -4.8,-1.2 -7.3,-1.5c-10.2,-0.9 -20.5,1.6 -29.2,7.1c-8,-1.6 -16.2,-2.7 -24.3,-3.1c-3.9,-0.7 -7.9,-0.7 -11.9,0c-2.9,1 -5.7,2.3 -8.3,4l-23.2,13.7c-16.8,1.6 -33.1,7 -47.5,15.8c-12.4,7.5 -24.2,16.1 -35,25.7c-8.2,4.5 -15.7,10.1 -22.5,16.5c-10,9.8 -18.7,20.7 -26,32.6c-6.4,7 -11.6,14.9 -15.5,23.6c-2.3,5.2 -3.8,10.7 -4.3,16.3c1,6.4 2.2,12.9 3.3,19.3c2.2,4.4 5.6,8.2 9.8,10.9c1.4,0.9 3,1.6 4.6,2.1c-0.2,2.9 -0.4,6 -0.7,9.3c0,0 0,0 0,0c0.1,0.7 0,1.4 -0.2,2.1c0,0.3 0,0.5 0,0.8c0,0.6 0,1.3 -0.2,1.9l0,0c-0.9,11.6 -2.2,23.2 -3.9,34.7c-0.7,3.7 -0.7,7.6 0,11.3c1.2,4.4 3,8.5 5.5,12.4c2.1,4 3.7,8.2 4.7,12.6c-4,-3.7 -7.3,-8 -9.7,-12.8c-1.1,8.5 1.2,17 6.6,23.7c1.2,1.5 2.7,2.9 4.3,4c0,0 0,0.7 0,1c-7.7,21.6 -19.1,41.6 -33.7,59.3c-3.6,3.5 -6,8 -7,12.9c0,6.6 3.8,12.6 9.7,15.5c3.5,2 7.1,3.6 10.9,4.8c2.2,0.8 4.4,1.6 6.5,2.4l0.6,-0.5c2.4,1.7 4.2,4.1 5.1,6.8c1.5,5.6 0.6,11.5 -2.3,16.4c-1.6,2.1 -2.4,4.7 -2.3,7.4c0.6,2 1.8,3.7 3.5,5l15.7,14.7c-6.9,1.2 -12.1,6.9 -12.8,13.8c-1,4 -0.1,8.3 2.4,11.6c2.2,1.9 4.6,3.6 7.1,5c8.4,6.1 9,18.2 8.9,28.5c-0.1,10.3 1.1,22.6 9.7,28c3.6,2.1 7.8,2.8 11.9,2.1c25.2,1.8 50.6,0.8 75.6,-3c7.4,-0.7 14.8,0.7 21.4,4c5.6,2.7 9.9,7.6 11.9,13.5c0,0 5.5,16.5 11.1,36.5c3.5,12.5 7,26.3 9.2,38.3c89.5,37.6 133.2,-54.7 214.1,-51.3c-18.4,-42.4 -27.1,-88.4 -25.3,-134.6c26.1,-5.1 47.8,-23.2 57.5,-47.9c3.4,-9.7 5.3,-19.9 5.5,-30.2c2.5,1.1 5,2.4 7.5,3.3c6.8,2.5 14.3,2.2 20.9,-0.7c1.6,-0.5 3,-1.6 3.9,-3.1c0.4,0.1 0.8,0.1 1.3,0.1c14,-0.3 27.2,-6.9 35.2,-18c12.6,2.5 26,-4.4 37.3,-11.1c8.9,-4.6 17,-10.6 24,-17.8c7.2,-8.7 11.8,-19.3 13.3,-30.5c1.8,-10.5 1.8,-21.3 0,-31.8c0.1,0.2 0.3,0.4 0.4,0.6c0,-5.3 -2.1,-9.9 -3.9,-14.7c-1.5,-2.4 -3.3,-4.7 -5.3,-6.9c-2.8,-3.2 -0.3,-7.6 3,-8.4z"/>
 </g>
</svg>