<?xml version="1.0" encoding="utf-8"?>
<!DOCTYPE svg PUBLIC "-//W3C//DTD SVG 1.1//EN" "http://www.w3.org/Graphics/SVG/1.1/DTD/svg11.dtd">
<svg version="1.1" id="Calque_1" xmlns="http://www.w3.org/2000/svg" xmlns:xlink="http://www.w3.org/1999/xlink" x="0px" y="0px"
	 width="612px" height="792px" style="fill:#0DA7A9" viewBox="0 0 612 792" enable-background="new 0 0 612 792" xml:space="preserve">
<g>
	<path fill="##0DA7A9" d="M293.594,345.602c4.771,1.055,9.586,5.917,15.411,5.917c1.238,0,2.522-0.184,3.854-0.734
		c-0.459,4.403-2.294,7.201-4.771,7.201c-6.56,0-12.339-10.412-20.457-10.412c-0.366,0-0.688,0-1.055,0.045l6.834-31.786
		c-3.991,1.651-6.421,5.091-6.421,9.999c0,2.339,0.596,2.707,0.642,3.12c-3.165,0-4.908-1.147-4.908-4.449
		c0-6.101,8.44-11.926,16.099-11.926c0.643,0,1.239,0.046,1.835,0.092L293.594,345.602z"/>
	<path fill="##0DA7A9" d="M309.325,342.942c3.623,0,5.825-2.018,8.117-4.633h1.561c-2.615,4.22-6.514,8.485-12.613,8.485
		c-4.312,0-7.155-2.11-7.155-7.293c0-5.275,2.981-16.329,12.384-16.329c4.082,0,5.046,2.11,5.046,4.404
		c0,5.274-5.046,9.356-10.55,9.678c-0.047,0.642-0.092,1.284-0.092,1.835C306.022,342.208,307.123,342.942,309.325,342.942z
		 M311.985,325.604c-2.34,0-4.587,4.908-5.504,9.449c3.531-0.23,6.65-3.762,6.65-7.568
		C313.132,326.338,312.856,325.604,311.985,325.604z"/>
	<path fill="##0DA7A9" d="M322.348,315.33l6.79-0.917l-2.202,10.32c1.88-1.146,2.844-1.284,3.761-1.284
		c3.211,0,5.413,2.019,5.413,7.843c0,5.366-2.845,15.503-12.568,15.503c-4.22,0-6.421-2.202-6.421-5.871
		c0-0.779,0.091-1.651,0.32-2.615L322.348,315.33z M329.045,326.705c-0.641,0-2.201,0.229-2.706,0.825l-2.521,11.65
		c-0.093,0.367-0.139,0.734-0.139,1.055c0,1.331,0.78,2.11,2.431,2.11c2.982,0,5.366-6.421,5.366-11.238
		C331.476,328.861,330.696,326.705,329.045,326.705z"/>
	<path fill="##0DA7A9" d="M347.299,342.942c3.623,0,5.824-2.018,8.118-4.633h1.561c-2.616,4.22-6.514,8.485-12.614,8.485
		c-4.312,0-7.156-2.11-7.156-7.293c0-5.275,2.981-16.329,12.385-16.329c4.082,0,5.046,2.11,5.046,4.404
		c0,5.274-5.046,9.356-10.55,9.678c-0.047,0.642-0.092,1.284-0.092,1.835C343.996,342.208,345.097,342.942,347.299,342.942z
		 M349.96,325.604c-2.341,0-4.588,4.908-5.506,9.449c3.532-0.23,6.651-3.762,6.651-7.568
		C351.105,326.338,350.83,325.604,349.96,325.604z"/>
	<path fill="##0DA7A9" d="M377.431,323.586l-3.303,15.595c-0.139,0.596-0.183,1.055-0.183,1.468c0,1.284,0.597,1.973,1.881,1.973
		c1.788,0,3.026-2.019,3.715-4.312h1.926c-2.614,7.477-6.742,8.485-9.219,8.485c-2.569,0-4.22-1.467-4.494-4.219
		c-1.423,2.109-3.579,4.219-6.836,4.219c-3.117,0-6.101-1.926-6.101-7.385c0-6.192,3.808-16.053,11.789-16.053
		c2.613,0,3.716,1.01,3.716,2.339v0.321l0.504-2.431H377.431z M361.606,338.769c0,3.531,1.469,3.577,2.295,3.577
		c1.328,0,3.256-1.376,3.806-4.037l2.201-10.366c0-0.55-0.412-1.743-1.88-1.743C364.13,326.2,361.606,334.457,361.606,338.769z"/>
	<path fill="##0DA7A9" d="M400.591,323.586l-3.303,15.595c-0.137,0.596-0.183,1.055-0.183,1.468c0,1.284,0.597,1.697,1.881,1.697
		c1.788,0,3.026-1.743,3.714-4.037h1.928c-2.615,7.477-6.742,8.485-9.22,8.485c-2.614,0-4.266-1.513-4.541-4.357
		c-2.293,3.761-4.861,4.357-6.789,4.357c-2.75,0-4.907-1.651-4.907-5.503c0-0.872,0.138-1.881,0.367-2.982l3.118-14.723h6.605
		l-3.303,15.595c-0.091,0.459-0.137,0.872-0.137,1.284c0,1.056,0.366,1.881,1.377,1.881c1.787,0,2.979-1.743,3.668-4.037
		l3.119-14.723H400.591z"/>
	<path fill="##0DA7A9" d="M416.046,327.485c0-1.147-0.412-1.881-1.284-1.881c-2.89,0-5.872,8.394-5.872,13.485
		c0,3.119,1.103,3.853,3.304,3.853c3.623,0,5.824-2.018,8.119-4.633h1.559c-2.614,4.22-6.514,8.485-12.614,8.485
		c-4.311,0-7.155-2.11-7.155-7.293c0-5.32,3.028-16.329,12.339-16.329c4.082,0,5.092,2.11,5.092,4.22
		c0,2.247-1.101,3.348-2.432,3.348c-0.503,0-1.055-0.184-1.604-0.551C415.863,329.182,416.046,328.264,416.046,327.485z"/>
	<path fill="##0DA7A9" d="M431.822,327.577c-1.789,0-3.211,2.797-3.485,4.036l-3.166,14.907h-6.604l6.649-31.19l6.789-0.917
		l-2.478,11.559c1.927-2.202,3.945-2.569,5.367-2.569c2.935,0,5.092,1.514,5.092,5.183c0,3.715-2.203,9.265-2.203,11.833
		c0,1.147,0.459,1.927,1.835,1.927c2.018,0,2.844-1.652,3.854-4.037h1.926c-2.568,7.522-6.1,8.485-8.531,8.485
		c-3.99,0-5.412-2.568-5.412-5.183c0-3.119,2.063-8.761,2.063-11.696C433.519,328.402,432.97,327.577,431.822,327.577z"/>
	<path fill="##0DA7A9" d="M452.965,342.942c3.623,0,5.824-2.018,8.117-4.633h1.561c-2.615,4.22-6.514,8.485-12.613,8.485
		c-4.312,0-7.156-2.11-7.156-7.293c0-5.275,2.981-16.329,12.385-16.329c4.082,0,5.046,2.11,5.046,4.404
		c0,5.274-5.046,9.356-10.55,9.678c-0.046,0.642-0.093,1.284-0.093,1.835C449.661,342.208,450.764,342.942,452.965,342.942z
		 M455.625,325.604c-2.34,0-4.587,4.908-5.505,9.449c3.532-0.23,6.651-3.762,6.651-7.568
		C456.771,326.338,456.497,325.604,455.625,325.604z"/>
	<path fill="##0DA7A9" d="M479.382,326.659c0,7.338-3.715,20.135-13.071,20.135c-3.486,0-5.643-1.788-5.643-5.412
		c0-0.505,0.046-1.33,0.229-2.202l3.303-15.595h6.605l-3.304,15.595c-0.137,0.643-0.229,1.238-0.229,1.651
		c0,0.917,0.458,1.514,1.559,1.514c4.496,0,7.936-10.274,7.936-15.319c-0.138,0.321-1.101,0.458-1.468,0.458
		c-1.101,0-1.651-1.331-1.651-2.339c0-1.422,0.918-2.477,2.845-2.477C478.694,322.668,479.382,324.641,479.382,326.659z"/>
	<path fill="##0DA7A9" d="M489.562,342.942c3.624,0,5.826-2.018,8.119-4.633h1.56c-2.614,4.22-6.514,8.485-12.614,8.485
		c-4.311,0-7.155-2.11-7.155-7.293c0-5.275,2.982-16.329,12.385-16.329c4.082,0,5.046,2.11,5.046,4.404
		c0,5.274-5.046,9.356-10.55,9.678c-0.046,0.642-0.092,1.284-0.092,1.835C486.26,342.208,487.36,342.942,489.562,342.942z
		 M492.223,325.604c-2.339,0-4.587,4.908-5.504,9.449c3.532-0.23,6.65-3.762,6.65-7.568
		C493.369,326.338,493.094,325.604,492.223,325.604z"/>
	<path fill="##0DA7A9" d="M507.402,323.586l-3.302,15.595c-0.092,0.367-0.138,0.78-0.138,1.146c0,1.056,0.32,2.019,1.377,2.019
		c1.788,0,2.979-1.743,3.667-4.037l3.12-14.723h6.605l-3.303,15.595c-0.139,0.596-0.184,1.055-0.184,1.468
		c0,1.284,0.597,1.697,1.881,1.697c0.871,0,1.101-0.138,1.513-0.275c-0.229,3.302-2.613,4.724-5.091,4.724
		c-2.522,0-4.174-1.651-4.495-4.357c-2.293,3.761-4.907,4.357-6.834,4.357c-2.752,0-4.908-1.651-4.908-5.503
		c0-0.872,0.138-1.881,0.367-2.982l3.119-14.723H507.402z"/>
</g>
<g id="Calque_1_1_">
	<title>Asset 2</title>
	<path fill="##0DA7A9" d="M517.98,150.804c0.132-0.068,0.271-0.123,0.416-0.159c1.61-1.963,2.598-4.373,2.819-6.916
		c0.45-6.452-0.618-12.921-3.122-18.886c-0.387-1.201-0.915-2.352-1.575-3.427c-0.804-1.121-1.75-2.134-2.811-3.016
		c-2.27-2.25-4.991-3.992-7.987-5.107c0.104-7.88-1.782-15.663-5.483-22.622c-1.259-2.514-3.091-4.697-5.349-6.375
		c-3.729-2.074-7.974-3.036-12.233-2.777c-5.428-0.689-10.94,0.204-15.871,2.571c-3.052,1.956-5.44,4.787-6.856,8.124
		c-0.007-0.03-0.021-0.059-0.029-0.087c-0.128,0.266-0.316,0.497-0.57,0.664c-0.178,0.793-0.333,1.585-0.368,2.407
		c0.053,0.347,0.112,0.691,0.175,1.029c0.035,0.189,0.046,0.367,0.035,0.534c0.172,0.335,0.232,0.728,0.188,1.104
		c-0.092-0.793-0.652-1.521-1.688-1.521c-1.025,0-1.586,0.719-1.686,1.507c-0.002-0.033-0.011-0.064-0.011-0.099
		c-0.352-0.369-0.723-0.724-1.117-1.048c-1.455-1.016-2.989-1.911-4.593-2.673c-5.449-2.948-9.77-7.814-15.354-10.729
		c-1.305-0.651-2.657-1.2-4.048-1.644c0.023-0.075,0.038-0.15,0.054-0.225c-2.825-0.722-5.775-0.863-8.592-1.597
		c-0.034,0.012-0.065,0.027-0.096,0.039l-3.016-0.446c-3.95-0.935-8.088-0.636-11.861,0.857c-0.785-0.566-1.65-1.005-2.569-1.303
		c-0.837-0.263-1.699-0.433-2.572-0.515c-3.607-0.302-7.216,0.575-10.283,2.503c-2.826-0.569-5.69-0.938-8.57-1.097
		c-1.38-0.247-2.796-0.247-4.179,0c-1.025,0.347-2.003,0.818-2.913,1.405l-8.158,4.832c-5.922,0.569-11.641,2.467-16.725,5.553
		c-4.379,2.637-8.508,5.667-12.339,9.049c-2.88,1.592-5.543,3.551-7.919,5.826c-3.505,3.443-6.578,7.299-9.152,11.482
		c-2.258,2.449-4.096,5.251-5.451,8.294c-0.819,1.825-1.328,3.769-1.521,5.753c0.36,2.267,0.787,4.526,1.155,6.795
		c0.774,1.565,1.963,2.898,3.452,3.836c0.509,0.307,1.051,0.56,1.61,0.753c-0.066,1.03-0.147,2.127-0.238,3.291
		c-0.004,0-0.01,0-0.017,0c0.028,0.246,0.008,0.495-0.053,0.732c0.009,0.094,0.009,0.188,0.003,0.281
		c0.016,0.225-0.013,0.452-0.073,0.667h0.001c-0.319,4.09-0.777,8.17-1.368,12.236c-0.237,1.315-0.237,2.661,0,3.976
		c0.42,1.538,1.066,3.006,1.918,4.354c0.75,1.391,1.303,2.879,1.646,4.421c-1.408-1.287-2.569-2.82-3.429-4.524
		c-0.403,2.978,0.438,5.993,2.332,8.33c0.437,0.534,0.943,1.007,1.509,1.405c0,0,0,0.24,0,0.343
		c-2.705,7.597-6.721,14.66-11.861,20.874c-1.254,1.242-2.114,2.827-2.468,4.558c0.013,2.321,1.342,4.433,3.428,5.449
		c1.218,0.69,2.507,1.253,3.838,1.68c0.79,0.275,1.545,0.549,2.298,0.857l0.207-0.171c0.837,0.587,1.46,1.429,1.781,2.399
		c0.519,1.964,0.223,4.053-0.821,5.793c-0.564,0.749-0.856,1.668-0.825,2.605c0.216,0.7,0.648,1.312,1.233,1.749l5.52,5.175
		c-2.427,0.432-4.271,2.417-4.523,4.867c-0.348,1.419-0.03,2.918,0.856,4.079c0.772,0.667,1.609,1.253,2.503,1.748
		c2.945,2.16,3.152,6.409,3.117,10.043c-0.033,3.634,0.376,7.953,3.428,9.872c1.265,0.729,2.743,0.997,4.181,0.753
		c8.89,0.632,17.823,0.276,26.633-1.063c2.595-0.238,5.205,0.249,7.539,1.406c1.979,0.962,3.486,2.678,4.183,4.764
		c0,0,1.955,5.826,3.909,12.853c1.231,4.388,2.468,9.255,3.257,13.471c31.531,13.23,46.922-19.262,75.406-18.063
		c-6.492-14.93-9.539-31.132-8.913-47.401c9.188-1.794,16.824-8.155,20.257-16.864c1.209-3.417,1.866-7.002,1.953-10.626
		c0.892,0.377,1.748,0.857,2.641,1.166c2.392,0.875,5.034,0.79,7.368-0.239c0.579-0.183,1.059-0.578,1.357-1.096
		c0.139,0.031,0.29,0.05,0.457,0.046c4.934-0.092,9.587-2.425,12.404-6.326c4.428,0.883,9.161-1.549,13.133-3.902
		c3.143-1.622,6-3.74,8.466-6.273c2.524-3.074,4.15-6.786,4.697-10.727c0.617-3.711,0.617-7.499,0-11.209
		c0.052,0.074,0.101,0.15,0.152,0.225c-0.007-1.854-0.728-3.494-1.371-5.182c-0.521-0.84-1.157-1.643-1.865-2.435
		C515.948,152.643,516.835,151.076,517.98,150.804z"/>
</g>
<g id="Calque_2">
</g>
</svg>
